<?xml version="1.0" encoding="utf-8"?>
<!-- Generator: Adobe Illustrator 26.0.1, SVG Export Plug-In . SVG Version: 6.00 Build 0)  -->
<svg version="1.1" id="Laag_1" xmlns="http://www.w3.org/2000/svg" xmlns:xlink="http://www.w3.org/1999/xlink" x="0px" y="0px"
	 viewBox="0 0 483.1 681.9" style="enable-background:new 0 0 483.1 681.9;" xml:space="preserve">
<style type="text/css">
	.st0{fill:#F6A316;}
	.st1{fill:#FFFFFF;}
	.st2{fill:#F28C00;}
	.st3{fill:#F9AE00;}
</style>
<path class="st0" d="M-172.7,60"/>
<g>
	<path class="st1" d="M-56.1-80v841.9h595.3V-80H-56.1z M53.8,183.6c-0.1,0.1-0.2,0.2-0.4,0.4c-28-14.9-47.1-37.2-52-69.3
		C-3.1,85.2,3.1,59.7,19.7,39c0,0,0.1-0.1,0.1-0.1c0.7-0.8,1.4-1.7,2.1-2.5c6.1-7.1,13.4-13.5,22-19.4c30-20.3,62.2-22.1,96.5-7.3
		c-1.7,3.4-2.7,5.4-3.9,7.9c-12.5-5.1-25-8.2-37.8-8.4c-7.6-0.1-15.3,0.9-23.1,3.1C38.9,22.8,17,47.3,10.4,84.5
		c-6.3,35.9,9.5,68.5,40.9,87.7C55.6,174.8,60.7,177.1,53.8,183.6z M19.7,76c2-9.1,9.4-11.1,17.9-6.9c13.3,6.5,26.6,13.2,39.8,20
		c2.7,1.4,5.2,3.4,7.9,5.3c-1.1,1.4-1.5,2.4-2.2,2.7c-7.3,2.5-14.5,5.1-21.8,7.6c-5.9,2.1-11.8,4.1-17.8,6.1
		c-4.4,1.5-8.8,3-13.2,4.5c-6.6,2.2-11.9-1.3-12.3-7.5c-0.2-4-0.4-8-0.3-12C17.7,89,18.3,82.3,19.7,76z M34.3,60.4
		c-5.8-3.1-4.6-8.6-1.2-11.8c7.8-7.6,16.3-14.7,25.2-21c1.9-1.4,4-2.1,5.9-2.1c3.3-0.1,6.2,1.8,7.7,6c5.5,15.7,10.5,31.7,15.5,47.6
		c0.8,2.5,1.6,5,2.4,7.5c-0.9,0.7-1.8,1.4-2.8,2C69.4,79.2,51.8,69.9,34.3,60.4z M76.8,28.2c-1.6-5,1-9.6,6-9.5c0,0,0,0,0.1,0
		c0,0,0,0,0,0c12,0.3,24,1.4,35.9,3.3c2.3,0.4,6.1,7.1,5.2,9.2c-7.7,18.3-16.3,36.2-24.6,54.3c0,0-0.1,0-0.1,0c0,0,0,0,0,0
		c-1.2-0.2-2.3-0.4-3.5-0.6c-5.2-15.2-10.4-30.4-15.3-45.6C79.3,35.6,78,31.9,76.8,28.2z M83.7,116.2c-6.5,13-13,26-20,38.7
		c-5,9-8.5,9.7-16.3,2.8c-7-6.1-13.3-13-19-20.3c-2.5-3.2-3.4-6.7-2.4-9.8c0.7-2.4,2.6-4.4,5.7-5.6c17.6-6.8,35.6-12.5,53.4-18.6
		c0.8-0.2,1.7,0.1,3.9,0.2C87,108.4,85.6,112.4,83.7,116.2z M315,648.4c3.1,1.4,14.7,5.4,17.9,6.3l24.7,6.6
		c6.6,1.8,10.6,8.9,8.1,15.3c-1.2,3-3.5,5.3-6.7,5.3h-73.3h-73.3c-3.2,0-5.5-2.3-6.7-5.3c-2.5-6.4,1.5-13.5,8.1-15.3l24.7-6.6
		c3.2-0.9,14.8-4.9,17.9-6.3l20.8-9V344.3L88.4,93.6H483L294.3,344.1v295.3L315,648.4z"/>
</g>
<g>
	<path class="st1" d="M483.1,78.7"/>
	<path d="M88.5,93.5l197.3,262l197.3-262H88.5z M124.4,110.6h322.8L285.8,325L124.4,110.6z"/>
	<rect x="277.3" y="325" width="17.1" height="317.8"/>
	<g>
		<path d="M285.8,639.1c0,0-7.1-0.5-8.5,0.2l-20.8,9c-3.1,1.4-14.7,5.4-17.9,6.3l-24.7,6.6c-6.6,1.8-10.6,8.9-8.1,15.3
			c1.2,3,3.5,5.3,6.7,5.3h73.3"/>
		<path d="M285.8,639.1c0,0,7.1-0.5,8.5,0.2l20.8,9c3.1,1.4,14.7,5.4,17.9,6.3l24.7,6.6c6.6,1.8,10.6,8.9,8.1,15.3
			c-1.2,3-3.5,5.3-6.7,5.3h-73.3"/>
	</g>
	<g id="P19qyp_00000136410183947001505600000013807001792377058742_">
		<g>
			<path class="st1" d="M140.5,9.7C106.2-5.1,74-3.3,44,17C9.7,40.3-4.7,73.6,1.6,114.5c4.9,32.1,23.9,54.4,52,69.3
				c7.3-6.7,2.2-9-2.2-11.7C20,152.9,4.2,120.3,10.5,84.4c6.6-37.2,28.4-61.7,65.2-72.1c20.8-5.9,40.9-2.9,60.9,5.3
				C137.8,15.1,138.8,13.1,140.5,9.7z M85.4,94.3c-2.8-1.9-5.2-3.9-7.9-5.3C64.3,82.2,51,75.5,37.7,69c-8.5-4.2-15.9-2.2-17.9,6.9
				c-2.3,10.2-2.3,21.2-1.7,31.8c0.4,6.2,5.7,9.7,12.3,7.5c17.7-5.9,35.2-12.1,52.8-18.2C83.9,96.7,84.3,95.7,85.4,94.3z M95.9,84.8
				c1.2,0.2,2.4,0.4,3.6,0.6c8.3-18.1,16.9-36,24.6-54.3c0.9-2.1-2.9-8.8-5.2-9.2C107,20,95,18.9,83,18.6c-5-0.1-7.7,4.5-6,9.5
				C83,47.1,89.5,65.9,95.9,84.8z M89.1,103.5c-2.2-0.1-3.1-0.4-3.9-0.1c-17.8,6.1-35.8,11.8-53.4,18.6c-7.2,2.8-7.7,9.7-3.3,15.3
				c5.7,7.3,12,14.2,19,20.3c7.8,6.9,11.3,6.2,16.3-2.8c7-12.7,13.5-25.7,20-38.7C85.7,112.3,87.1,108.3,89.1,103.5z M87.1,88.5
				c0.9-0.7,1.9-1.3,2.8-2C84,68.1,78.4,49.6,72,31.4c-2.3-6.7-8.6-7.5-13.6-3.9c-8.9,6.3-17.4,13.4-25.2,21
				c-3.4,3.2-4.5,8.7,1.2,11.8C51.9,69.8,69.6,79.1,87.1,88.5z"/>
			<path class="st2" d="M140.5,9.7c-1.7,3.4-2.7,5.4-3.9,7.9c-19.9-8.2-40.1-11.2-60.9-5.3C39,22.7,17.1,47.2,10.5,84.4
				c-6.3,35.9,9.4,68.6,40.8,87.8c4.4,2.7,9.5,4.9,2.2,11.7c-28-14.9-47.1-37.2-52-69.3c-6.2-40.9,8.1-74.2,42.4-97.5
				C74-3.3,106.2-5,140.5,9.7z"/>
			<path class="st3" d="M85.4,94.3c-1.1,1.4-1.5,2.4-2.2,2.7c-17.6,6.1-35.1,12.3-52.8,18.2c-6.6,2.2-11.9-1.3-12.3-7.5
				c-0.6-10.6-0.6-21.5,1.7-31.8c2-9.1,9.4-11.1,17.9-6.9C51,75.6,64.3,82.3,77.5,89C80.2,90.4,82.7,92.4,85.4,94.3z M73.9,93.5
				c-6.6-3.5-11.6-8.6-18.6-4c-1.2,0.8-1.3,6.1,0,7.2C61.8,102.6,67.2,98.2,73.9,93.5z"/>
			<path class="st3" d="M95.9,84.8c-6.3-18.9-12.8-37.8-19-56.7c-1.6-5,1-9.6,6-9.5c12,0.3,24.1,1.4,35.9,3.3c2.3,0.4,6,7.1,5.2,9.2
				c-7.7,18.3-16.3,36.3-24.6,54.3C98.2,85.2,97.1,85,95.9,84.8z M99.6,74.5c3.6-6.8,8.9-11.6,4.6-18.4c-0.8-1.2-6.2-1.4-7.4-0.1
				C91.2,61.9,94.3,67.5,99.6,74.5z"/>
			<path class="st3" d="M89.1,103.5c-2,4.8-3.4,8.8-5.3,12.5c-6.6,13-13,26-20,38.7c-5,9-8.5,9.8-16.3,2.8c-6.9-6.1-13.3-13-19-20.3
				c-4.4-5.6-3.8-12.6,3.3-15.3c17.6-6.8,35.6-12.5,53.4-18.6C86,103.1,86.9,103.4,89.1,103.5z M82.5,109.3c-0.6-0.7-1.3-1.3-1.9-2
				c-4,2.2-8.7,3.8-11.9,7c-1.5,1.5,0.1,6,0.2,9.1c3-0.8,7.2-0.7,8.7-2.6C80.2,117.7,81,113.2,82.5,109.3z"/>
			<path class="st3" d="M87.1,88.5c-17.6-9.4-35.2-18.7-52.7-28.2c-5.8-3.1-4.6-8.6-1.2-11.8c7.9-7.6,16.3-14.7,25.2-21
				c5.1-3.6,11.3-2.8,13.6,3.9c6.3,18.2,12,36.7,17.9,55.1C89,87.2,88.1,87.9,87.1,88.5z M79.8,77.3c0.8-0.8,1.6-1.5,2.5-2.3
				c-2.3-4.3-4-9-7.1-12.5c-1.2-1.3-5.5,0.1-8.3,0.2c0.2,2.6-0.5,6.5,0.9,7.7C71.2,73.4,75.7,75.1,79.8,77.3z"/>
			<path class="st1" d="M73.9,93.5c-6.7,4.7-12.1,9.1-18.6,3.2c-1.3-1.1-1.2-6.4,0-7.2C62.2,84.9,67.3,90.1,73.9,93.5z"/>
			<path class="st1" d="M99.6,74.5c-5.3-6.9-8.4-12.6-2.8-18.5c1.2-1.3,6.7-1.1,7.4,0.1C108.5,62.9,103.2,67.7,99.6,74.5z"/>
			<path class="st1" d="M82.5,109.3c-1.5,3.9-2.3,8.4-4.8,11.5c-1.6,2-5.7,1.8-8.7,2.6c-0.2-3.1-1.7-7.6-0.2-9.1
				c3.1-3.2,7.8-4.8,11.9-7C81.2,108,81.8,108.7,82.5,109.3z"/>
			<path class="st1" d="M79.8,77.3c-4.1-2.2-8.6-3.9-12-6.9c-1.4-1.2-0.7-5-0.9-7.7c2.9-0.2,7.2-1.6,8.3-0.2
				c3.1,3.6,4.8,8.3,7.1,12.5C81.4,75.8,80.6,76.5,79.8,77.3z"/>
		</g>
	</g>
</g>
</svg>
